<svg id="visual" viewBox="0 0 900 450" width="900" height="450" xmlns="http://www.w3.org/2000/svg" xmlns:xlink="http://www.w3.org/1999/xlink" version="1.1"><path d="M0 69L13.7 78C27.3 87 54.7 105 82 100.5C109.3 96 136.7 69 163.8 60C191 51 218 60 245.2 61.5C272.3 63 299.7 57 327 63C354.3 69 381.7 87 409 89.2C436.3 91.3 463.7 77.7 491 72.3C518.3 67 545.7 70 573 73C600.3 76 627.7 79 654.8 80.5C682 82 709 82 736.2 77.5C763.3 73 790.7 64 818 61.8C845.3 59.7 872.7 64.3 886.3 66.7L900 69L900 0L886.3 0C872.7 0 845.3 0 818 0C790.7 0 763.3 0 736.2 0C709 0 682 0 654.8 0C627.7 0 600.3 0 573 0C545.7 0 518.3 0 491 0C463.7 0 436.3 0 409 0C381.7 0 354.3 0 327 0C299.7 0 272.3 0 245.2 0C218 0 191 0 163.8 0C136.7 0 109.3 0 82 0C54.7 0 27.3 0 13.7 0L0 0Z" fill="#b76aff"></path><path d="M0 123L13.7 133.5C27.3 144 54.7 165 82 161.2C109.3 157.3 136.7 128.7 163.8 115.8C191 103 218 106 245.2 104.5C272.3 103 299.7 97 327 106C354.3 115 381.7 139 409 141.3C436.3 143.7 463.7 124.3 491 113.8C518.3 103.3 545.7 101.7 573 106.8C600.3 112 627.7 124 654.8 132.3C682 140.7 709 145.3 736.2 142.3C763.3 139.3 790.7 128.7 818 122.7C845.3 116.7 872.7 115.3 886.3 114.7L900 114L900 67L886.3 64.7C872.7 62.3 845.3 57.7 818 59.8C790.7 62 763.3 71 736.2 75.5C709 80 682 80 654.8 78.5C627.7 77 600.3 74 573 71C545.7 68 518.3 65 491 70.3C463.7 75.7 436.3 89.3 409 87.2C381.7 85 354.3 67 327 61C299.7 55 272.3 61 245.2 59.5C218 58 191 49 163.8 58C136.7 67 109.3 94 82 98.5C54.7 103 27.3 85 13.7 76L0 67Z" fill="#a345ff"></path><path d="M0 154L13.7 166C27.3 178 54.7 202 82 205C109.3 208 136.7 190 163.8 181.8C191 173.7 218 175.3 245.2 171.7C272.3 168 299.7 159 327 171.7C354.3 184.3 381.7 218.7 409 225.3C436.3 232 463.7 211 491 192.3C518.3 173.7 545.7 157.3 573 155.2C600.3 153 627.7 165 654.8 174C682 183 709 189 736.2 194.2C763.3 199.3 790.7 203.7 818 200.7C845.3 197.7 872.7 187.3 886.3 182.2L900 177L900 112L886.3 112.7C872.7 113.3 845.3 114.7 818 120.7C790.7 126.7 763.3 137.3 736.2 140.3C709 143.3 682 138.7 654.8 130.3C627.7 122 600.3 110 573 104.8C545.7 99.7 518.3 101.3 491 111.8C463.7 122.3 436.3 141.7 409 139.3C381.7 137 354.3 113 327 104C299.7 95 272.3 101 245.2 102.5C218 104 191 101 163.8 113.8C136.7 126.7 109.3 155.3 82 159.2C54.7 163 27.3 142 13.7 131.5L0 121Z" fill="#8b00ff"></path><path d="M0 240L13.7 252.7C27.3 265.3 54.7 290.7 82 291.3C109.3 292 136.7 268 163.8 277.8C191 287.7 218 331.3 245.2 342.7C272.3 354 299.7 333 327 335.2C354.3 337.3 381.7 362.7 409 356.7C436.3 350.7 463.7 313.3 491 305.2C518.3 297 545.7 318 573 330C600.3 342 627.7 345 654.8 335.2C682 325.3 709 302.7 736.2 295.2C763.3 287.7 790.7 295.3 818 304.3C845.3 313.3 872.7 323.7 886.3 328.8L900 334L900 175L886.3 180.2C872.7 185.3 845.3 195.7 818 198.7C790.7 201.7 763.3 197.3 736.2 192.2C709 187 682 181 654.8 172C627.7 163 600.3 151 573 153.2C545.7 155.3 518.3 171.7 491 190.3C463.7 209 436.3 230 409 223.3C381.7 216.7 354.3 182.3 327 169.7C299.7 157 272.3 166 245.2 169.7C218 173.3 191 171.7 163.8 179.8C136.7 188 109.3 206 82 203C54.7 200 27.3 176 13.7 164L0 152Z" fill="#7900dc"></path><path d="M0 451L13.7 451C27.3 451 54.7 451 82 451C109.3 451 136.7 451 163.8 451C191 451 218 451 245.2 451C272.3 451 299.7 451 327 451C354.3 451 381.7 451 409 451C436.3 451 463.7 451 491 451C518.3 451 545.7 451 573 451C600.3 451 627.7 451 654.8 451C682 451 709 451 736.2 451C763.3 451 790.7 451 818 451C845.3 451 872.7 451 886.3 451L900 451L900 332L886.3 326.8C872.7 321.7 845.3 311.3 818 302.3C790.7 293.3 763.3 285.7 736.2 293.2C709 300.7 682 323.3 654.8 333.2C627.7 343 600.3 340 573 328C545.7 316 518.3 295 491 303.2C463.7 311.3 436.3 348.7 409 354.7C381.7 360.7 354.3 335.3 327 333.2C299.7 331 272.3 352 245.2 340.7C218 329.3 191 285.7 163.8 275.8C136.7 266 109.3 290 82 289.3C54.7 288.7 27.3 263.3 13.7 250.7L0 238Z" fill="#6700ba"></path></svg>